<!--?xml version="1.0" encoding="utf-8"?-->
<!-- Generator: Adobe Illustrator 18.0.0, SVG Export Plug-In . SVG Version: 6.00 Build 0)  -->

<svg version="1.1" id="_x32_" xmlns="http://www.w3.org/2000/svg" xmlns:xlink="http://www.w3.org/1999/xlink" x="0px" y="0px" viewBox="0 0 512 512" style="width: 256px; height: 256px; opacity: 1;" xml:space="preserve">
<style type="text/css">
	.st0{fill:#4B4B4B;}
</style>
<g>
	<path class="st0" d="M397.888,275.261c6.191-31.222,8.807-62.921,7.484-94.171c-1.846-37.129-9.213-68.418-22.525-95.659
		l-5.621-11.141l-6.832-10.611c-3.084-5.258-7.23-10.048-11.239-14.678c-1.484-1.714-2.959-3.416-4.384-5.145
		c-13.753-13.768-26.983-23.325-40.451-29.208l-3.123-1.437c-2.67-1.238-5.336-2.479-7.952-3.462l-10.688-3.463
		c-2.378-0.855-4.923-1.413-7.452-1.968c-1.16-0.258-2.319-0.511-3.455-0.792c-3.185-0.765-6.988-1.601-11.044-2.022
		C264.139,0.508,257.55,0,251.022,0c-8.401,0-16.65,0.832-24.516,2.475c-31.5,6.273-53.72,23.52-66.814,36.879
		c-1.68,1.667-3.201,3.517-4.806,5.262c-0.464,0.504-0.929,1.007-1.382,1.51c-3.012,3.358-5.932,6.918-8.735,10.63
		c-0.363,0.48-0.728,0.956-1.081,1.436c-1.318,1.784-2.7,3.428-3.984,5.302c-4.891,7.007-9.287,14.401-13.827,23.266
		c-6.676,13.214-11.836,26.464-15.334,39.374c-3.352,12.492-4.538,21.924-4.193,28.189c0.168,4.946,1.216,7.929,2.979,8.436
		c0.082,0.023,0.181-0.028,0.265-0.012c0.146,0.066,0.262,0.226,0.418,0.27c4.267,0,11.118-10.146,22.466-26.952
		c6.039-8.928,13.429-19.566,22.439-30.774c8.116-9.966,19.273-22.771,33.588-33.37c14.503-11.059,30.434-17.684,46.073-19.156
		c2.538-0.269,5.118-0.41,7.73-0.41c6.191,0,12.582,0.788,19.012,2.338c2.366,0.382,4.766,1.124,7.007,1.87
		c0.867,0.301,1.737,0.547,2.612,0.793c1.499,0.425,3.006,0.851,4.521,1.561l7.222,2.889c1.308,0.609,2.49,1.284,3.67,1.96
		c0.863,0.492,1.722,0.984,2.627,1.448c31.906,16.091,53.022,61.641,55.098,118.867c2.182,48.72-7.913,102.085-28.436,150.266
		c-17.524,41.286-42.258,76.796-69.644,99.976c-24.727,21.947-48.934,31.55-69.675,38.831c-3.978,1.23-7.636,2.643-10.962,3.931
		l-1.8,0.695c-3.83,1.14-7.164,2.424-9.916,3.822c-5.797,2.955-8.916,6.379-9.272,10.17c-0.441,4.712,2.303,8.744,8.381,12.336
		c3.022,1.78,6.902,3.451,11.552,4.977c4.536,1.175,9.845,1.85,16.419,2.498c2.1,0.297,4.271,0.414,6.508,0.414h0.004
		c3.924,0,8.077-0.359,12.477-0.742l1.94-0.168c6.516-0.297,13.218-2.003,20.316-3.81l4.294-1.085
		c3.424-0.734,6.64-2.011,10.044-3.361l3.17-1.242c1.374-0.582,2.784-1.136,4.212-1.698c3.15-1.238,6.41-2.514,9.474-4.197
		l13.749-7.562c3.228-1.741,6.141-3.83,9.221-6.043c1.452-1.038,2.912-2.088,4.427-3.111c19.531-14.229,36.743-31.226,51.156-50.519
		c15.533-20.554,29.068-43.949,40.233-69.535c11.624-26.928,20.235-55,25.894-83.467
		C397.858,275.394,397.876,275.328,397.888,275.261z"></path>
	<path class="st0" d="M194.124,352.557c-1.487,2.21-3.162,4.337-4.97,6.312l-1.936,1.936c-0.371,0.3-0.749,0.613-1.237,0.714
		c-0.18,0.094-0.445,0.14-0.793,0.14c-1.916,0-5.941-1.448-9.365-3.373c-7.729-4.255-14.382-9.408-19.73-13.546l-3.623-2.861
		c-5.147-4.091-8.924-7.039-11.75-8.803c-1.944-1.312-3.24-1.924-3.9-1.749c-0.066-0.008-0.172-0.074-0.234-0.074
		c-0.058,0-0.113,0.004-0.172,0.008c-1.573,1.339,3.478,9.705,12.012,19.898c4.977,5.735,11.032,12.406,19.98,18.969
		c2.709,1.913,5.22,3.404,7.898,4.688c1.23,0.605,2.6,1.054,4.267,1.6l1.194,0.39l1.894,0.226c1.276,0.168,2.58,0.34,3.88,0.34
		c0.371,0,0.742-0.016,1.112-0.047c2.569-0.199,4.962-1.386,6.754-2.397c0.738-0.383,1.608-1.023,2.334-1.562l0.718-0.523
		c0.554-0.402,1.023-0.808,1.499-1.218l0.699-0.597c2.709-2.42,5.153-4.981,7.464-7.831c9.638-11.957,16.74-25.589,21.108-40.518
		c1.714-6.348,3.884-16.041,2.928-26.917c-0.828-11.024-5.266-21.607-12.168-29.036c-1.667-1.987-3.638-3.662-6.094-5.754
		c-0.769-0.609-1.569-1.156-2.374-1.702l-3.978-2.686c-2.908-1.882-6.285-4.162-9.264-6.8c-5.98-5.028-10.521-10.798-13.496-17.146
		c-5.754-11.817-4.911-27.194,2.51-45.706c1.722-4.333,3.947-8.94,6.676-13.984c2.986,0.82,8.545,2.346,16.95,7.948
		c5.477,3.678,12.324,8.885,18.782,14.28c5.66,4.809,9.861,10.509,12.152,16.482c2.698,6.504,3.607,13.062,4.275,17.856
		c0.439,3.162,0.82,5.52,1.651,6.98c0.066,0.137,0.129,0.297,0.203,0.414c0.143,0.199,0.344,0.312,0.516,0.461
		c0.14,0.113,0.248,0.32,0.414,0.374c0.031,0.012,0.08-0.019,0.113-0.012c0.137,0.07,0.224,0.219,0.379,0.262
		c1.831,0,4.314-2.862,6.332-7.292c1.749-3.912,4.497-12.098,3.26-22.966c-0.82-9.732-5.735-20.456-13.152-28.689
		c-6.918-7.612-13.827-13.726-21.127-18.684c-4.681-3.193-9.272-5.614-13.712-7.382c-0.716-0.308-1.497-0.738-2.19-1.011
		c2.309-2.616,4.659-5.168,7.107-7.437c6.211-5.532,12.641-9.353,18.106-10.763c1.632-0.476,3.705-0.726,5.992-0.726
		c4.111,0,8.733,0.808,12.375,2.167c10.642,3.826,20.179,13.366,26.85,26.87c5.2,10.517,9.006,22.838,11.321,36.622
		c3.865,23.161,3.115,42.957,2.03,57.612l-0.508,6.016c-0.74,8.498-1.087,13.62,0.305,15.814c0.096,0.164,0.22,0.281,0.338,0.41
		c0.209,0.218,0.322,0.593,0.595,0.714c0.32,0.148,0.668,0.223,1.038,0.223c3.275,0,8.92-6.266,13.574-20.023
		c3.455-10.419,8.721-32.581,5.188-63.913c-1.909-16.294-5.86-30.696-12.082-44.031c-4.204-8.827-9.108-16.193-14.979-22.517
		c-7.152-7.73-15.853-13.628-25.168-17.06c-5.243-1.847-10.509-3.018-15.662-3.478c-0.836-0.027-1.636-0.09-2.432-0.152
		c-1.062-0.086-2.12-0.168-3.267-0.168c-0.828,0-1.698,0.043-2.643,0.16l-1.655,0.152c-2.506,0.223-5.102,0.449-7.336,1.253
		c-12.824,3.416-22.427,10.962-28.537,16.342c-7.078,6.382-13.687,14.151-20.214,23.754c-6.036,8.905-11.024,18.305-14.827,27.932
		c-4.587,11.657-7.039,21.787-7.714,31.874c-0.914,11.274,1.312,23.138,6.266,33.405c4.571,9.373,11.59,18.001,20.3,24.946
		c4.255,3.533,8.776,6.379,12.238,8.46l3.306,2.077c0.398,0.246,0.796,0.488,1.152,0.753l1.003,0.82
		c0.843,0.671,1.679,1.343,2.362,2.139c10.372,10.103,7.686,28.131,6.051,35.415C206.55,329.774,201.163,342.176,194.124,352.557z"></path>
</g>
</svg>
